<svg width="1202" height="264" viewBox="0 0 1202 264" fill="none" xmlns="http://www.w3.org/2000/svg">
<g clip-path="url(#clip0)">
<path d="M1326.07 217.02C1322.59 231.782 1307.24 242.636 1292.17 241.189C1280 240.031 1269.57 232.071 1259.43 225.414C1249.15 218.612 1236.84 212.678 1225.1 215.862C1217.57 217.888 1211.49 223.388 1206.27 229.032C1198.59 237.281 1191.64 246.399 1185.85 256.096C1182.66 261.451 1179.62 267.095 1174.98 271.292C1170.35 275.489 1163.54 277.95 1157.75 275.634C1151.81 273.318 1148.76 266.95 1144.27 262.464C1137.03 255.228 1126.02 253.057 1116.03 254.938C1106.03 256.82 1097.2 262.464 1089.52 269.266C1076.77 280.699 1066.78 297.488 1070.4 314.276C1073.44 328.315 1085.61 338.88 1091.4 352.339C1097.34 366.523 1095.46 383.601 1086.48 396.047C1078.22 407.625 1064.6 415.006 1058.52 427.887C1054.75 435.847 1054.46 445.11 1055.04 453.938C1056.64 483.462 1067.79 512.118 1086.04 535.13" stroke="#252A31" stroke-miterlimit="10"/>
<path d="M1327.66 242.202C1325.34 251.32 1315.78 257.977 1304.63 258.266C1302.31 258.266 1299.99 258.122 1297.68 257.543C1288.4 255.517 1279.71 249.872 1271.02 244.807C1268.99 243.649 1266.97 242.491 1265.08 241.478C1254.65 235.834 1242.49 231.637 1230.61 235.11C1223.08 237.426 1216.7 242.346 1211.2 247.122C1203.38 253.925 1196.86 261.45 1191.06 269.41C1188.75 272.594 1186.57 275.923 1183.82 278.818C1182.81 279.831 1181.65 280.844 1180.49 281.712C1176 285.041 1169.62 287.067 1164.12 284.896C1158.47 282.725 1155.28 277.081 1150.94 273.463C1149.92 272.594 1148.77 271.726 1147.46 271.002C1140.8 267.24 1132.4 266.661 1124.86 268.687C1116.03 271.147 1108.06 276.936 1101.11 283.449C1089.66 294.159 1080.25 309.355 1082.71 324.262C1084.88 337.143 1094.88 346.55 1099.23 358.707C1103.86 371.298 1101.54 386.784 1093.14 397.928C1084.88 408.927 1072.28 416.743 1066.78 429.334C1063.45 437.149 1063.16 446.122 1063.88 454.661C1064.17 457.7 1064.46 460.74 1064.89 463.779C1068.81 488.962 1079.96 512.841 1096.18 532.524" stroke="#252A31" stroke-miterlimit="10"/>
<path d="M1329.25 267.384C1327.52 273.318 1319.69 277.225 1309.55 275.633C1307.53 275.344 1305.35 274.765 1303.18 274.041C1294.49 271.002 1285.94 264.923 1276.96 260.437C1274.93 259.424 1272.91 258.411 1270.88 257.542C1260.16 252.911 1248.14 250.595 1236.4 254.503C1228.87 256.963 1222.21 261.45 1216.41 265.502C1208.59 270.857 1202.36 276.936 1196.71 283.014C1194.39 285.475 1192.22 288.08 1189.47 290.251C1188.46 291.119 1187.44 291.843 1186.28 292.566C1181.94 295.171 1176 296.619 1170.78 294.593C1165.42 292.566 1162.09 287.79 1157.75 284.896C1156.73 284.172 1155.57 283.593 1154.42 283.014C1148.04 280.12 1140.65 280.409 1133.99 283.014C1126.17 286.054 1119.36 291.987 1112.84 298.355C1102.7 308.342 1093.87 321.801 1095.17 335.116C1096.33 346.405 1104.3 354.799 1107.34 365.509C1110.52 376.653 1107.92 390.257 1099.95 400.243C1091.69 410.23 1080.1 418.334 1075.18 430.781C1072.14 438.451 1071.99 447.135 1072.86 455.384C1073.15 458.279 1073.59 461.174 1074.02 464.068C1078.37 488.382 1090.1 510.96 1106.03 529.919" stroke="#252A31" stroke-miterlimit="10"/>
<path d="M1284.78 5.71792C1282.76 17.1514 1278.84 28.1506 1272.47 37.7026C1266.1 47.2546 1256.97 55.2146 1246.11 59.4117C1235.82 63.1746 1224.38 63.7535 1213.51 62.0168C1204.53 60.5695 1195.84 57.675 1188.17 52.899C1183.68 50.1492 1179.62 46.6757 1174.98 43.9259C1174.26 43.4917 1173.54 43.0575 1172.96 42.7681C1157.02 33.9397 1140.36 33.795 1126.31 22.0721C1116.17 13.6779 1114.29 -0.65009 1111.83 -13.0966C1109.36 -25.5432 1102.99 -40.1606 1089.95 -42.3315C1084.45 -43.3446 1078.95 -41.7526 1073.44 -41.1737C1048.38 -38.7133 1027.09 -58.6857 1012.02 -78.2239C1008.26 -82.9999 1004.06 -87.6311 998.696 -91.394C993.482 -95.0122 987.253 -97.3278 981.893 -100.512C973.781 -105.288 967.553 -112.09 963.352 -120.195C961.324 -124.247 959.731 -128.589 957.413 -132.786C954.516 -137.996 951.039 -142.193 947.997 -146.68C943.797 -152.903 940.465 -159.995 937.858 -167.376C933.077 -180.691 929.891 -195.308 929.746 -209.636C929.601 -240.029 942.058 -268.54 950.75 -297.92C954.371 -310.366 957.413 -322.958 958.717 -335.838C962.338 -372.454 952.053 -408.925 941.624 -444.239" stroke="#252A31" stroke-miterlimit="10"/>
<path d="M295.864 480.567C307.453 470.147 316.579 456.687 323.097 442.504C324.401 439.61 325.704 436.57 326.863 433.531C331.354 422.098 334.541 409.651 334.396 397.349C334.396 395.178 334.251 392.863 333.961 390.692C333.092 383.021 330.629 375.64 327.008 368.693C326.718 368.114 326.284 367.535 325.994 366.812C318.896 354.51 308.322 343.8 301.224 332.511C296.734 325.565 294.271 318.762 289.926 313.408C282.538 304.29 271.384 298.501 258.927 295.896C254.581 295.027 249.946 294.738 245.31 295.027C237.199 295.461 228.073 297.343 220.396 293.146C211.994 288.514 209.097 277.66 210.111 268.397C211.125 259.28 214.891 250.885 216.629 241.768C216.919 240.32 217.064 239.018 217.209 237.57C218.078 229.61 217.064 221.072 213.008 214.269C210.98 210.941 208.373 208.046 205.186 205.875C193.742 198.205 177.664 200.665 163.758 200.086C157.239 199.797 151.01 198.784 145.796 195.31C143.188 193.573 141.015 191.403 139.132 188.942C134.932 183.153 133.048 175.627 132.179 168.391C131.165 160.576 131.165 152.76 129.282 145.524C128.703 143.208 127.979 141.037 126.965 138.867C118.998 120.486 96.4004 112.092 74.2377 106.158C60.9111 102.54 48.7434 98.1982 36.1411 94.58C26.291 91.8302 16.1512 89.5146 5.86653 86.7647C-5.14239 83.8702 -16.5858 80.3968 -27.1602 76.0549C-39.0382 71.1342 -50.0471 64.911 -57.0001 54.3459" stroke="#252A31" stroke-miterlimit="10"/>
<path d="M368.581 517.039C387.846 503.001 400.304 481.002 407.112 458.135C408.561 453.359 409.719 448.583 410.733 443.807C414.5 425.427 415.658 406.468 415.514 387.508C415.514 384.18 415.514 380.706 415.224 377.377C414.644 365.51 412.906 353.787 407.836 343.222C407.402 342.209 406.967 341.34 406.388 340.327C396.248 321.368 376.982 306.316 372.782 286.055C370.174 273.463 374.52 261.596 375.679 249.873C376.982 237.426 374.375 223.677 364.38 214.27C360.904 210.941 356.558 208.481 351.923 206.599C343.376 203.126 333.526 201.244 325.269 195.745C316.578 189.956 311.363 180.404 308.466 170.852C305.569 161.444 304.7 151.748 303.396 141.762C303.252 140.17 302.962 138.722 302.817 137.13C301.513 128.591 299.63 119.618 294.416 112.671C291.808 109.198 288.621 106.593 284.855 104.567C271.963 97.6198 254.581 99.7907 239.661 101.672C232.708 102.54 225.755 103.264 219.381 101.962C216.049 101.383 213.008 100.225 209.966 98.6329C203.013 94.8699 198.232 88.3573 193.887 81.6998C189.251 74.6082 184.906 67.2271 178.822 62.1616C176.794 60.5696 174.766 59.1224 172.593 57.9646C154.197 48.2678 128.268 56.3726 104.512 49.2809C88.1432 44.3602 76.5549 31.7689 63.8077 21.638C53.8128 13.8228 42.5141 7.16528 30.4912 1.66565C17.5992 -4.12344 3.54835 -8.75469 -10.3577 -11.794C-25.857 -15.2674 -41.9359 -17.1489 -53.8139 -27.2798" stroke="#252A31" stroke-miterlimit="10"/>
<path d="M316.579 -403.426C309.771 -384.467 305.281 -361.311 317.593 -345.101C321.794 -339.746 327.299 -335.694 333.383 -332.51C334.541 -331.931 335.7 -331.352 336.859 -330.773C353.952 -322.379 372.783 -317.458 391.759 -316.301C398.422 -315.866 405.23 -315.866 411.604 -313.985C430.724 -308.34 440.864 -284.461 433.911 -268.106C431.159 -261.594 426.379 -256.383 422.033 -250.884C420.005 -248.423 418.122 -245.818 416.384 -243.069C409.576 -232.938 404.216 -221.07 403.202 -207.9C402.043 -191.546 409.576 -176.928 415.08 -161.877C422.033 -142.628 419.86 -121.064 424.061 -100.078C428.407 -78.6585 435.215 -58.6862 437.822 -37.1218C439.271 -24.3858 442.458 -11.7945 439.705 0.0730911C438.547 5.13854 435.794 9.48034 432.318 13.5327C425.22 21.9269 414.211 28.2949 402.188 26.4134C376.549 22.6505 351.634 14.8353 328.892 5.86217C320.925 2.8229 313.248 -0.505837 305.715 -3.68984C286.015 -11.9393 267.474 -23.0833 246.325 -32.6353C226.046 -41.7531 205.187 -51.1603 184.328 -58.6862C175.491 -61.8702 166.511 -64.7647 157.674 -67.2251C145.941 -70.5538 132.904 -71.4222 121.751 -77.9349C103.934 -88.2105 96.6909 -104.709 79.8878 -115.998C65.837 -125.405 49.3235 -129.458 38.894 -144.654C37.5904 -146.536 36.4316 -148.417 35.4176 -150.443C29.1889 -162.166 26.7263 -175.77 24.9881 -188.506C23.8293 -197.19 22.8152 -206.597 17.1659 -213.544C12.2409 -219.623 4.99822 -222.807 -1.08565 -227.583C-7.16952 -232.214 -12.3842 -240.319 -9.48717 -247.555" stroke="#252A31" stroke-miterlimit="10"/>
<path d="M851.09 -355.955C865.575 -342.496 866.589 -319.484 861.664 -300.091C856.739 -280.697 847.179 -262.606 843.847 -243.213C842.254 -233.806 841.385 -222.951 838.488 -213.833C835.88 -205.439 831.535 -198.492 823.423 -195.164C818.063 -192.993 811.834 -192.993 806.475 -190.677C791.989 -184.02 791.989 -165.495 790.251 -148.996C789.961 -146.825 789.817 -144.654 789.382 -142.483C786.485 -124.392 775.621 -107.893 773.738 -89.6575C772 -73.4481 776.49 -57.8176 780.256 -42.0423C781.85 -35.5296 783.443 -28.7274 784.312 -21.9253C785.181 -14.8336 785.181 -8.03144 784.022 -1.51872C783.298 2.67837 782.139 6.73071 780.836 10.4936C775.331 27.7161 765.336 43.7809 755.196 60.2797C749.402 69.687 743.463 79.0943 738.538 89.5146C734.627 97.7641 731.44 106.303 729.557 115.276C728.109 121.499 728.109 127.867 728.543 134.091C728.978 141.038 730.137 147.984 730.571 154.931C730.861 160.72 730.861 165.786 729.268 170.996C728.398 173.746 726.805 175.917 725.646 178.377C724.632 180.548 723.763 182.864 723.908 185.903C724.632 195.6 728.688 205.007 732.744 213.98C739.552 229.176 746.215 244.373 752.879 259.569C756.066 266.95 759.397 274.331 762.584 281.712C767.654 293.146 772.579 304.579 777.649 316.013C780.256 321.946 783.008 328.314 782.574 334.682C782.284 339.169 780.691 343.221 778.663 347.274C776.925 350.892 775.041 354.365 773.593 358.128C773.448 358.418 773.303 358.852 773.303 359.141C772 362.76 771.275 366.522 770.551 370.141C769.247 377.088 768.523 384.034 765.191 389.823C759.107 400.533 745.781 405.454 733.034 406.178C720.431 406.757 707.684 404.73 694.937 407.77C693.633 408.059 692.185 408.493 690.881 408.927C687.839 410.085 685.087 411.533 682.914 413.125C681.466 414.138 680.162 415.151 679.003 416.309C676.686 418.479 674.223 420.94 671.905 423.69C664.083 432.952 657.999 444.675 652.785 457.845C644.962 477.673 638.589 499.961 635.981 520.946" stroke="#252A31" stroke-miterlimit="10"/>
<path d="M803 -351.179C813.864 -338.009 814.733 -318.181 810.677 -301.104C806.476 -284.026 798.219 -267.816 793.294 -251.462C790.832 -243.502 788.659 -234.819 785.038 -227.437C781.851 -220.78 777.36 -215.28 770.407 -212.096C765.627 -209.925 760.412 -209.491 755.777 -207.176C743.03 -200.952 740.278 -186.769 737.091 -172.731C736.656 -170.849 736.222 -168.968 735.787 -167.231C732.021 -151.6 724.344 -136.549 722.606 -120.339C720.867 -103.262 723.185 -86.3284 725.213 -69.3954C725.937 -62.7379 727.675 -55.2121 728.255 -47.831C728.834 -40.1605 728.255 -32.7794 725.213 -26.8456C723.185 -22.938 720.578 -20.3329 717.97 -17.7278C707.396 -6.72853 691.462 2.67876 677.121 15.27C668.72 22.5064 660.898 31.0452 655.248 42.1892C650.903 50.8729 648.295 60.2801 647.281 69.8321C646.557 76.4896 647.137 83.2917 648.44 89.8045C649.744 97.0408 651.772 104.132 653.51 111.079C654.814 116.868 656.118 122.079 656.118 127.289C656.118 130.183 655.683 132.499 655.538 135.104C655.393 137.42 655.393 139.88 656.118 142.919C658.58 152.761 663.215 162.457 667.706 171.865C675.238 187.785 682.481 203.994 689.724 220.059C693.2 227.874 696.677 235.689 700.298 243.505C705.802 255.662 711.162 267.674 716.666 279.831C719.564 286.199 722.316 292.712 723.185 299.225C723.764 303.856 723.475 308.198 722.895 312.54C722.461 316.447 721.881 320.355 720.867 324.552C720.722 324.841 720.722 325.276 720.578 325.565C719.564 329.473 718.115 333.38 716.666 336.998C713.769 344.235 710.872 350.313 706.237 354.945C697.691 363.484 683.64 365.799 670.023 363.628C653.22 360.878 636.707 355.234 619.18 361.457C617.441 362.036 615.703 362.905 614.11 363.918C610.344 366.378 607.736 369.707 607.157 373.035C606.722 375.206 607.157 376.798 607.302 378.825C607.446 382.443 606.867 386.785 606.143 391.271C604.115 406.612 603.246 423.979 599.914 442.505C594.699 470.871 583.256 499.816 573.985 527.17" stroke="#252A31" stroke-miterlimit="10"/>
<path d="M722.749 -343.22C727.819 -330.628 728.254 -316.156 725.356 -302.696C722.459 -289.236 716.376 -276.356 708.698 -265.067C704.787 -259.423 700.442 -254.212 695.372 -249.726C691.171 -245.963 686.536 -242.779 681.321 -240.029C677.699 -238.148 674.078 -236.556 670.457 -234.53C660.752 -229.175 653.074 -221.938 647.715 -212.386C646.99 -211.084 646.266 -209.781 645.687 -208.334C640.327 -196.9 638.009 -184.02 636.851 -171.284C635.112 -152.469 633.954 -133.655 632.795 -114.985C632.36 -108.327 633.954 -99.4991 634.098 -90.9602C634.243 -82.2766 632.795 -74.1719 626.566 -69.1064C622.655 -65.9224 617.44 -65.3435 612.515 -64.9094C594.264 -63.4621 567.755 -66.0672 546.027 -59.6992C533.28 -56.081 522.271 -49.2788 515.463 -36.5428C510.393 -27.1356 508.8 -16.4257 509.379 -5.71592C509.814 1.66517 511.552 9.04625 513.869 15.8484C516.622 23.519 520.098 30.9 524.009 37.9917C527.051 43.636 530.238 49.1357 533.28 54.6353C534.873 57.5298 536.322 60.4244 537.915 63.3189C539.364 65.924 540.667 68.6738 542.261 71.4236C547.62 81.4098 553.27 91.6855 558.485 101.961C567.321 119.184 575.432 136.84 583.689 154.352C587.6 162.891 591.656 171.43 595.567 179.824C601.651 192.994 607.88 206.309 613.964 219.48C617.15 226.426 620.337 233.373 623.234 240.176C625.262 245.096 627.145 249.872 628.884 254.648C630.477 258.99 632.215 263.621 631.781 268.397C631.781 268.832 631.636 269.266 631.636 269.555C630.912 273.897 628.594 277.949 625.842 281.423C620.047 288.949 613.819 293.58 607.155 296.33C594.263 301.25 579.343 298.501 564.279 292.567C540.667 283.16 517.491 272.45 492.141 284.173C489.679 285.33 487.361 286.922 485.478 288.949C480.698 293.58 478.091 300.237 480.118 306.026C481.422 309.934 484.464 312.684 486.927 316.013C491.417 322.091 493.735 329.617 495.908 336.998C503.585 362.615 511.552 388.955 511.262 416.453C510.828 459.148 490.403 499.237 470.123 536.866" stroke="#252A31" stroke-miterlimit="10"/>
<path d="M591.077 235.544C580.213 200.231 551.243 173.312 537.192 139.301C533.281 129.749 530.528 119.907 527.342 110.066C523.575 98.4878 519.23 86.9097 514.305 75.7657C512.422 71.4238 509.959 66.7926 505.324 65.49C500.544 64.1875 495.619 67.3715 492.866 71.4238C490.114 75.4762 488.811 80.3969 486.638 84.7387C480.119 98.0536 464.91 106.593 450.134 105.145C438.256 103.987 426.813 98.1984 414.645 98.6325C407.113 98.922 403.057 103.843 405.23 111.369C406.244 114.842 408.416 117.881 410.734 120.776C420.439 133.367 432.462 144.801 438.981 159.418C446.223 175.627 443.616 193.139 443.616 210.362C441.588 218.467 439.56 227.15 442.747 234.821C446.803 244.517 457.957 249.004 468.386 249.872C478.816 250.596 489.245 248.57 499.675 249.728C519.664 251.754 537.047 264.779 556.747 268.253C581.807 272.739 599.334 262.608 591.077 235.544Z" stroke="#252A31" stroke-miterlimit="10"/>
<path d="M546.462 223.821C547.042 229.9 545.593 234.242 541.972 236.702C538.206 239.307 532.701 239.886 526.472 238.583C516.477 236.413 507.641 229.755 498.516 226.861C493.446 225.269 488.665 224.4 483.885 222.519C479.105 220.637 474.035 217.309 471.573 212.098C471.283 211.375 470.993 210.651 470.704 209.927C469.69 206.309 469.69 202.691 469.69 199.218C467.951 190.245 467.082 181.271 462.881 172.588C460.998 168.825 458.826 165.352 456.653 161.878C454.19 157.97 451.873 154.063 449.845 150.01C448.975 148.274 448.106 146.537 447.817 144.511C447.527 143.353 447.527 142.34 447.672 141.327C448.106 138.866 449.555 137.13 452.162 136.551C455.639 135.682 459.405 136.261 463.026 136.84C465.489 137.274 467.951 137.564 470.414 137.564C478.091 137.709 485.913 133.946 490.404 128.157C491.852 126.275 492.866 123.96 494.604 122.368C497.212 120.052 500.833 118.894 504.02 119.618C507.352 120.341 509.669 122.802 511.263 125.696C512.711 128.446 514.015 131.63 514.884 135.104C516.188 140.314 517.202 145.234 518.216 150.155C519.664 156.813 521.258 163.47 524.444 170.851C532.556 188.942 544.869 205.875 546.462 223.821Z" stroke="#252A31" stroke-miterlimit="10"/>
<path d="M979.141 375.35C965.67 391.56 950.605 406.901 932.354 417.611C917.144 426.584 899.472 432.083 882.089 431.215C878.613 431.07 875.136 430.636 871.805 429.912C851.235 425.571 832.839 409.94 827.914 389.823C821.975 365.219 834.867 342.208 842.834 318.762C847.324 305.881 849.642 291.987 850.076 278.238C850.366 268.252 849.497 258.266 847.614 248.569C841.82 219.769 822.409 196.757 819.947 166.364C818.498 148.852 821.83 107.605 828.348 63.1737C832.984 31.7679 838.923 -1.08511 846.31 -28.2938C855.291 -60.8574 865.866 -85.0269 877.019 -86.3294C888.608 -87.632 896.43 -75.4749 901.645 -65.4887C908.453 -52.608 913.523 -38.28 920.91 -24.8204C923.228 -20.6233 925.69 -16.5709 928.443 -12.6633C942.059 6.15124 962.194 19.6109 982.328 31.3338C995.22 38.8596 1008.84 44.9381 1023.03 48.8458C1027.09 50.0036 1031.29 51.0167 1035.49 51.7403C1046.06 53.6218 1057.65 54.3454 1065.47 61.437C1071.27 66.6472 1073.15 74.6072 1076.48 81.4094C1083.44 96.0268 1096.76 107.605 1111.39 112.092C1119.22 114.552 1127.04 115.131 1134.57 117.302C1147.46 120.92 1165.42 130.472 1173.68 141.326C1181.36 151.602 1175.13 172.877 1169.91 184.31C1168.9 186.481 1167.89 188.652 1166 190.244C1161.22 194.152 1153.98 192.415 1147.61 192.27C1133.56 191.981 1123.85 200.23 1112.41 206.598C1110.23 207.756 1107.92 208.914 1105.6 210.072C1094.88 214.993 1083.58 218.9 1073.59 225.558C1056.35 236.991 1042.73 252.766 1031.29 269.699C1025.49 278.383 1020.28 287.356 1015.5 296.329C1012.6 301.829 1010.14 307.473 1007.82 313.262C999.131 334.971 993.482 357.983 979.141 375.35Z" stroke="#252A31" stroke-miterlimit="10"/>
<path d="M1035.92 163.326C1024.77 163.76 1013.33 161.734 1002.61 164.773C988.411 168.825 978.126 181.127 969.29 192.995C964.655 199.073 960.164 205.297 957.557 212.388C953.936 222.23 954.37 233.084 953.211 243.505C952.053 253.925 948.431 265.069 939.595 270.713C933.946 274.331 926.703 275.2 920.474 272.884C904.975 267.385 900.774 246.978 903.961 230.769C907.148 214.559 914.97 199.073 913.956 182.574C913.232 170.707 907.727 159.708 903.816 148.419C900.195 138.288 897.877 127.723 896.718 117.013C895.849 109.198 895.849 100.804 900.34 94.4356C908.017 83.4363 924.82 84.0153 936.843 89.6596C948.866 95.304 959.15 104.856 971.898 108.908C984.21 112.816 997.392 111.224 1010.14 109.921C1022.89 108.619 1036.36 107.895 1048.09 113.105C1079.38 127.289 1067.07 162.023 1035.92 163.326Z" stroke="#252A31" stroke-miterlimit="10"/>
<path d="M3.69386 -162.745C7.46006 -132.062 24.408 -103.262 49.3229 -84.7366C57.2899 -78.8028 66.126 -74.0268 73.8033 -67.8035C90.6064 -54.4886 102.34 -34.9504 121.171 -24.6748C153.039 -7.1628 193.163 -21.0566 228.508 -12.6624C245.6 -8.61008 260.955 0.652456 275.585 10.4939C281.814 14.691 288.477 19.9012 288.912 27.2823C289.057 28.7295 288.767 30.1768 287.898 31.3346C286.449 32.9266 283.987 32.9266 281.814 32.4925C268.922 30.1768 257.768 22.7957 246.325 16.5725C227.928 6.58629 207.793 -0.939547 186.934 -1.80791C162.889 -2.821 137.249 4.56007 115.811 -6.29447C91.9101 -18.4516 82.6393 -49.1337 59.8972 -63.317C50.7714 -68.9613 40.0522 -71.7112 30.2021 -75.7635C-12.0953 -92.8413 -40.9212 -138.43 -38.6036 -183.875" stroke="#252A31" stroke-miterlimit="10"/>
<path d="M230.825 483.173C241.399 470.582 248.932 449.307 251.539 433.242C254.002 418.046 251.394 401.257 240.82 389.969C231.549 379.982 217.933 375.785 205.331 371.009C186.934 363.918 168.683 354.366 156.37 338.88C148.403 328.749 143.333 315.724 143.623 302.698C143.912 291.265 158.253 280.265 150.141 268.977C146.665 264.201 141.015 261.596 135.221 260.293C129.572 258.846 123.633 258.556 117.984 256.964C81.6252 247.412 100.167 211.665 82.4943 189.232C76.2656 181.272 65.4015 179.246 55.4066 177.943C36.141 175.628 16.7306 174.47 -2.67989 174.759" stroke="#252A31" stroke-miterlimit="10"/>
<path d="M820.817 282.436C817.775 265.792 809.084 250.885 801.551 235.689C782.72 197.915 771.132 153.339 785.183 113.539C786.052 111.224 786.921 108.763 786.631 106.303C786.197 103.843 784.024 101.382 781.561 101.816C780.258 102.106 779.244 102.974 778.374 103.843C770.842 111.803 768.669 123.381 768.959 134.235C769.249 145.09 771.566 155.944 771.711 166.799C771.856 187.495 763.744 208.336 768.669 228.453C773.739 248.57 791.122 263.621 797.205 283.449C799.523 290.975 800.537 325.709 810.822 325.854C824.293 325.999 822.12 289.672 820.817 282.436Z" stroke="#252A31" stroke-miterlimit="10"/>
<path d="M1223.8 207.178C1215.54 207.033 1207.58 211.086 1201.49 216.73C1195.41 222.374 1191.06 229.611 1187.01 236.847C1184.55 241.334 1182.08 246.11 1178.32 249.728C1174.55 253.346 1169.34 255.806 1164.27 254.649C1159.63 253.636 1156.3 250.017 1152.68 246.978C1149.06 243.939 1144.42 241.334 1139.93 242.781C1138.19 243.36 1136.6 244.662 1134.57 244.807C1130.08 245.097 1127.76 238.729 1129.94 234.821C1132.11 230.913 1136.74 229.177 1141.09 227.585C1158.76 221.361 1176.43 215.283 1194.11 209.06C1199.47 207.178 1204.83 205.297 1209.46 202.257C1221.34 194.153 1226.41 179.39 1229.88 165.352" stroke="#252A31" stroke-miterlimit="10"/>
<path d="M1174.55 230.19C1168.47 238.873 1158.33 240.61 1151.08 232.361C1158.76 226.137 1182.23 224.835 1186.43 217.454C1183.53 222.374 1177.88 225.414 1174.55 230.19Z" stroke="#252A31" stroke-miterlimit="10"/>
<path d="M1066.05 22.5054C1059.24 20.9134 1052.15 22.7949 1045.05 23.0843C1023.9 23.9527 1004.78 10.3483 990.874 -5.57166C976.968 -21.4916 966.103 -40.1614 950.749 -54.6341C943.941 -61.0021 935.25 -66.9359 925.979 -65.9228C926.269 -56.5156 933.077 -48.4109 940.754 -42.7665C948.431 -37.2669 957.267 -33.504 964.8 -27.5701C975.664 -19.0312 982.762 -6.72946 992.322 3.40144C1005.5 17.44 1023.47 26.992 1042.44 30.0312C1049.39 31.189 1056.35 31.4785 1063.3 33.0705C1067.65 34.0836 1071.85 35.6756 1075.9 37.2676C1079.23 31.0443 1071.99 24.0974 1066.05 22.5054Z" stroke="#252A31" stroke-miterlimit="10"/>
<path d="M966.829 155.366C963.932 159.708 960.745 165.207 955.531 165.352C950.026 165.497 946.55 158.984 947.274 153.485C947.419 151.893 947.853 150.445 947.708 148.853C947.274 145.959 944.811 143.933 943.073 141.617C941.19 139.301 940.031 135.828 941.914 133.657C942.639 132.789 943.797 132.354 944.956 132.065C951.909 129.894 959.586 129.894 966.539 131.92C969.147 132.644 971.754 133.802 974.362 134.091C981.749 135.104 988.123 131.052 994.931 129.749C999.711 128.881 1010 129.605 1002.46 135.828C998.987 138.722 988.123 138.433 983.343 140.893C976.824 144.077 971.03 149.143 966.829 155.366Z" stroke="#252A31" stroke-miterlimit="10"/>
</g>
<defs>
<clipPath id="clip0">
<rect width="1398" height="984" fill="white" transform="translate(1341 539.761) rotate(-180)"/>
</clipPath>
</defs>
</svg>
